<?xml version="1.0" encoding="UTF-8"?>
<svg xmlns="http://www.w3.org/2000/svg" width="860" height="600" viewBox="0 0 860 600">
<rect width="100%" height="100%" fill="#ffffff"/>
<text x="92" y="36" font-family="Arial, sans-serif" font-size="24" font-weight="700" fill="#12314a">OLSM five-year incident myopia: calibration</text>
<rect x="92" y="74" width="740" height="448" fill="#f8fbfc" stroke="#cbd8df"/>
<line x1="92.00" y1="74" x2="92.00" y2="522" stroke="#e4ecef"/>
<line x1="92" y1="522.00" x2="832" y2="522.00" stroke="#e4ecef"/>
<text x="92.00" y="547" text-anchor="middle" font-family="Arial, sans-serif" font-size="12" fill="#526675">0.00</text>
<text x="80" y="526.00" text-anchor="end" font-family="Arial, sans-serif" font-size="12" fill="#526675">0.00</text>
<line x1="240.00" y1="74" x2="240.00" y2="522" stroke="#e4ecef"/>
<line x1="92" y1="432.40" x2="832" y2="432.40" stroke="#e4ecef"/>
<text x="240.00" y="547" text-anchor="middle" font-family="Arial, sans-serif" font-size="12" fill="#526675">0.14</text>
<text x="80" y="436.40" text-anchor="end" font-family="Arial, sans-serif" font-size="12" fill="#526675">0.14</text>
<line x1="388.00" y1="74" x2="388.00" y2="522" stroke="#e4ecef"/>
<line x1="92" y1="342.80" x2="832" y2="342.80" stroke="#e4ecef"/>
<text x="388.00" y="547" text-anchor="middle" font-family="Arial, sans-serif" font-size="12" fill="#526675">0.28</text>
<text x="80" y="346.80" text-anchor="end" font-family="Arial, sans-serif" font-size="12" fill="#526675">0.28</text>
<line x1="536.00" y1="74" x2="536.00" y2="522" stroke="#e4ecef"/>
<line x1="92" y1="253.20" x2="832" y2="253.20" stroke="#e4ecef"/>
<text x="536.00" y="547" text-anchor="middle" font-family="Arial, sans-serif" font-size="12" fill="#526675">0.42</text>
<text x="80" y="257.20" text-anchor="end" font-family="Arial, sans-serif" font-size="12" fill="#526675">0.42</text>
<line x1="684.00" y1="74" x2="684.00" y2="522" stroke="#e4ecef"/>
<line x1="92" y1="163.60" x2="832" y2="163.60" stroke="#e4ecef"/>
<text x="684.00" y="547" text-anchor="middle" font-family="Arial, sans-serif" font-size="12" fill="#526675">0.56</text>
<text x="80" y="167.60" text-anchor="end" font-family="Arial, sans-serif" font-size="12" fill="#526675">0.56</text>
<line x1="832.00" y1="74" x2="832.00" y2="522" stroke="#e4ecef"/>
<line x1="92" y1="74.00" x2="832" y2="74.00" stroke="#e4ecef"/>
<text x="832.00" y="547" text-anchor="middle" font-family="Arial, sans-serif" font-size="12" fill="#526675">0.70</text>
<text x="80" y="78.00" text-anchor="end" font-family="Arial, sans-serif" font-size="12" fill="#526675">0.70</text>
<line x1="93.36" y1="522.00" x2="93.36" y2="522.00" stroke="#0b8588" stroke-width="1.5"/>
<line x1="89.36" y1="522.00" x2="97.36" y2="522.00" stroke="#0b8588" stroke-width="1.5"/>
<line x1="89.36" y1="522.00" x2="97.36" y2="522.00" stroke="#0b8588" stroke-width="1.5"/>
<line x1="100.68" y1="522.00" x2="100.68" y2="495.32" stroke="#0b8588" stroke-width="1.5"/>
<line x1="96.68" y1="522.00" x2="104.68" y2="522.00" stroke="#0b8588" stroke-width="1.5"/>
<line x1="96.68" y1="495.32" x2="104.68" y2="495.32" stroke="#0b8588" stroke-width="1.5"/>
<line x1="112.66" y1="522.00" x2="112.66" y2="494.96" stroke="#0b8588" stroke-width="1.5"/>
<line x1="108.66" y1="522.00" x2="116.66" y2="522.00" stroke="#0b8588" stroke-width="1.5"/>
<line x1="108.66" y1="494.96" x2="116.66" y2="494.96" stroke="#0b8588" stroke-width="1.5"/>
<line x1="130.54" y1="515.12" x2="130.54" y2="454.63" stroke="#0b8588" stroke-width="1.5"/>
<line x1="126.54" y1="515.12" x2="134.54" y2="515.12" stroke="#0b8588" stroke-width="1.5"/>
<line x1="126.54" y1="454.63" x2="134.54" y2="454.63" stroke="#0b8588" stroke-width="1.5"/>
<line x1="157.84" y1="513.79" x2="157.84" y2="439.41" stroke="#0b8588" stroke-width="1.5"/>
<line x1="153.84" y1="513.79" x2="161.84" y2="513.79" stroke="#0b8588" stroke-width="1.5"/>
<line x1="153.84" y1="439.41" x2="161.84" y2="439.41" stroke="#0b8588" stroke-width="1.5"/>
<line x1="215.78" y1="484.36" x2="215.78" y2="388.26" stroke="#0b8588" stroke-width="1.5"/>
<line x1="211.78" y1="484.36" x2="219.78" y2="484.36" stroke="#0b8588" stroke-width="1.5"/>
<line x1="211.78" y1="388.26" x2="219.78" y2="388.26" stroke="#0b8588" stroke-width="1.5"/>
<line x1="344.04" y1="432.70" x2="344.04" y2="308.67" stroke="#0b8588" stroke-width="1.5"/>
<line x1="340.04" y1="432.70" x2="348.04" y2="432.70" stroke="#0b8588" stroke-width="1.5"/>
<line x1="340.04" y1="308.67" x2="348.04" y2="308.67" stroke="#0b8588" stroke-width="1.5"/>
<line x1="699.19" y1="245.00" x2="699.19" y2="101.17" stroke="#0b8588" stroke-width="1.5"/>
<line x1="695.19" y1="245.00" x2="703.19" y2="245.00" stroke="#0b8588" stroke-width="1.5"/>
<line x1="695.19" y1="101.17" x2="703.19" y2="101.17" stroke="#0b8588" stroke-width="1.5"/>
<polyline points="92.00,522.00 832.00,74.00" fill="none" stroke="#8a99a5" stroke-width="3" stroke-dasharray="7 6"/>
<polyline points="93.36,522.00 100.68,513.79 112.66,513.69 130.54,488.75 157.84,480.44 215.78,438.88 344.04,372.39 699.19,172.91" fill="none" stroke="#0b8588" stroke-width="3"/>
<circle cx="93.36" cy="522.00" r="4" fill="#0b8588"/>
<circle cx="100.68" cy="513.79" r="4" fill="#0b8588"/>
<circle cx="112.66" cy="513.69" r="4" fill="#0b8588"/>
<circle cx="130.54" cy="488.75" r="4" fill="#0b8588"/>
<circle cx="157.84" cy="480.44" r="4" fill="#0b8588"/>
<circle cx="215.78" cy="438.88" r="4" fill="#0b8588"/>
<circle cx="344.04" cy="372.39" r="4" fill="#0b8588"/>
<circle cx="699.19" cy="172.91" r="4" fill="#0b8588"/>
<text x="462.00" y="576" text-anchor="middle" font-family="Arial, sans-serif" font-size="15" fill="#273743">OOF predicted probability</text>
<text x="24" y="298.00" text-anchor="middle" transform="rotate(-90 24 298.00)" font-family="Arial, sans-serif" font-size="15" fill="#273743">Observed event rate</text>
<rect x="98" y="80" width="190" height="56" rx="4" fill="#ffffff" fill-opacity="0.88" stroke="#d6e1e6"/>
<line x1="106" y1="96" x2="136" y2="96" stroke="#8a99a5" stroke-width="3" stroke-dasharray="7 6"/>
<text x="144" y="100" font-family="Arial, sans-serif" font-size="13" fill="#273743">Perfect calibration</text>
<line x1="106" y1="119" x2="136" y2="119" stroke="#0b8588" stroke-width="3"/>
<text x="144" y="123" font-family="Arial, sans-serif" font-size="13" fill="#273743">Full ridge model</text>
</svg>
